<svg xmlns="http://www.w3.org/2000/svg" viewBox="0 0 320 120" role="img" aria-labelledby="title desc">
  <title id="title">Logo Jocaval</title>
  <desc id="desc">Monograma JC con referencia a construccion para Constructora y Consultoria Jocaval</desc>
  <defs>
    <linearGradient id="jcBlue" x1="0%" x2="100%" y1="0%" y2="100%">
      <stop offset="0%" stop-color="#1b5f99"/>
      <stop offset="100%" stop-color="#0d3b66"/>
    </linearGradient>
  </defs>
  <rect width="320" height="120" rx="24" fill="none"/>
  <g transform="translate(18 14)">
    <g transform="translate(0 0)">
      <path
        d="M40 78h40V16l34-16v74c0 18-14 32-32 32H40V78Z"
        fill="url(#jcBlue)"
      />
      <path
        d="M128 24c15-7 33-10 50-10 21 0 39 5 53 17v16h-25V38c-8-3-17-5-27-5-11 0-19 2-27 5v40c8 3 16 4 25 4 13 0 24-2 34-8V63h-31V44h70v40c-17 12-41 18-72 18-20 0-37-3-50-10V24Z"
        fill="#7f92ab"
      />
      <path d="M132 4h39l17 8h-39L132 4Z" fill="#f4a261" />
      <path d="M177 6h33l15 7h-34L177 6Z" fill="#f4a261" />
      <path d="M216 10h24l11 6h-24L216 10Z" fill="#f4a261" />
    </g>
    <g transform="translate(258 24)">
      <text
        x="0"
        y="20"
        fill="#0d3b66"
        font-family="Barlow, Arial, sans-serif"
        font-size="22"
        font-weight="800"
      >
        JOCAVAL
      </text>
      <text
        x="0"
        y="42"
        fill="#52606d"
        font-family="Manrope, Arial, sans-serif"
        font-size="10"
        font-weight="600"
      >
        CONSTRUCTORA Y CONSULTORIA
      </text>
    </g>
  </g>
</svg>
