<svg xmlns="http://www.w3.org/2000/svg" viewBox="0 0 520 150" role="img" aria-labelledby="title desc">
  <title id="title">Constructora y Consultoria Jocaval S.A.C.</title>
  <desc id="desc">Logo horizontal con edificios azules y el texto Jocaval S.A.C.</desc>
  <defs>
    <linearGradient id="tower" x1="0" x2="1" y1="0" y2="1">
      <stop offset="0%" stop-color="#12307a"/>
      <stop offset="100%" stop-color="#1f8ac8"/>
    </linearGradient>
    <linearGradient id="name" x1="0" x2="1" y1="0" y2="0">
      <stop offset="0%" stop-color="#17357f"/>
      <stop offset="100%" stop-color="#2f3474"/>
    </linearGradient>
  </defs>

  <rect width="520" height="150" fill="none"/>

  <g transform="translate(18 14)">
    <path d="M14 116c42-19 88-19 132 0" fill="none" stroke="#1b7fb7" stroke-width="4" stroke-linecap="round"/>
    <path d="M20 103h44V74l-22-12-22 12v29Z" fill="#f7fbff" stroke="#1b5f99" stroke-width="4" stroke-linejoin="round"/>
    <path d="M64 103h47V65L88 52 64 65v38Z" fill="#f7fbff" stroke="#1b5f99" stroke-width="4" stroke-linejoin="round"/>
    <path d="M29 84h8v9h-8zM47 84h8v9h-8zM73 76h8v9h-8zM93 76h8v9h-8z" fill="#1b5f99"/>

    <path d="M30 66V22l24-12v68H30Z" fill="#1e77b7"/>
    <path d="M55 61V16L79 4v70H55Z" fill="#17357f"/>
    <path d="M80 56V32l15-8v41H80Z" fill="#2aa1d5"/>
    <path d="M30 66h50v12H30z" fill="#17357f" opacity="0.16"/>
  </g>

  <g transform="translate(155 31)">
    <text
      x="0"
      y="20"
      fill="#172033"
      font-family="Barlow, Arial, sans-serif"
      font-size="21"
      font-weight="800"
      letter-spacing=".8"
    >
      CONSTRUCTORA Y CONSULTORIA
    </text>
    <text
      x="0"
      y="83"
      fill="url(#name)"
      font-family="Georgia, 'Times New Roman', serif"
      font-size="59"
      font-weight="700"
    >
      Jocaval S.A.C.
    </text>
    <path d="M1 94h317" stroke="#1b7fb7" stroke-width="3" stroke-linecap="round"/>
  </g>
</svg>
